<?xml version="1.0" encoding="UTF-8" standalone="no"?>
<!DOCTYPE svg PUBLIC "-//W3C//DTD SVG 1.1//EN"
 "http://www.w3.org/Graphics/SVG/1.1/DTD/svg11.dtd">
<!-- Generated by graphviz version 2.28.0 (20110507.0327)
 -->
<!-- Title: bowtie Pages: 1 -->
<svg width="220pt" height="229pt"
 viewBox="0.00 0.00 219.52 228.90" xmlns="http://www.w3.org/2000/svg" xmlns:xlink="http://www.w3.org/1999/xlink">
<g id="graph1" class="graph" transform="scale(1 1) rotate(0) translate(4 224.896)">
<title>bowtie</title>
<polygon fill="white" stroke="white" points="-4,5 -4,-224.896 216.519,-224.896 216.519,5 -4,5"/>
<!-- a -->
<g id="node1" class="node"><title>a</title>
<ellipse fill="#d0d0d0" stroke="black" cx="63.3216" cy="-11" rx="11" ry="11"/>
<text text-anchor="middle" x="63.3216" y="-7.3" font-family="Helvetica,sans-Serif" font-size="14.00">a</text>
</g>
<!-- b -->
<g id="node3" class="node"><title>b</title>
<ellipse fill="#d0d0d0" stroke="black" cx="11" cy="-59.3359" rx="11" ry="11"/>
<text text-anchor="middle" x="11" y="-55.6359" font-family="Helvetica,sans-Serif" font-size="14.00">b</text>
</g>
<!-- a&#45;&#45;b -->
<g id="edge2" class="edge"><title>a&#45;&#45;b</title>
<path fill="none" stroke="blue" stroke-width="2" d="M55.1464,-18.5525C45.3744,-27.5801 29.1132,-42.6025 19.2905,-51.6769"/>
</g>
<!-- c -->
<g id="node4" class="node"><title>c</title>
<ellipse fill="#d0d0d0" stroke="black" cx="80.9927" cy="-82.3908" rx="11" ry="11"/>
<text text-anchor="middle" x="80.9927" y="-78.6908" font-family="Helvetica,sans-Serif" font-size="14.00">c</text>
</g>
<!-- b&#45;&#45;c -->
<g id="edge3" class="edge"><title>b&#45;&#45;c</title>
<path fill="none" stroke="blue" stroke-width="2" d="M21.6304,-62.8375C34.7859,-67.1707 57.0608,-74.5079 70.2623,-78.8563"/>
</g>
<!-- c&#45;&#45;a -->
<g id="edge4" class="edge"><title>c&#45;&#45;a</title>
<path fill="none" stroke="blue" stroke-width="2" d="M78.3089,-71.5481C74.9875,-58.1298 69.3638,-35.41 66.0308,-21.9448"/>
</g>
<!-- d -->
<g id="node5" class="node"><title>d</title>
<ellipse fill="#d0d0d0" stroke="black" cx="131.245" cy="-137.954" rx="11" ry="11"/>
<text text-anchor="middle" x="131.245" y="-134.254" font-family="Helvetica,sans-Serif" font-size="14.00">d</text>
</g>
<!-- c&#45;&#45;d -->
<g id="edge10" class="edge"><title>c&#45;&#45;d</title>
<path fill="none" stroke="blue" stroke-width="2" d="M88.4077,-90.5894C97.9087,-101.095 114.284,-119.201 123.8,-129.722"/>
</g>
<!-- e -->
<g id="node7" class="node"><title>e</title>
<ellipse fill="#d0d0d0" stroke="black" cx="200.519" cy="-162.655" rx="11" ry="11"/>
<text text-anchor="middle" x="200.519" y="-158.955" font-family="Helvetica,sans-Serif" font-size="14.00">e</text>
</g>
<!-- d&#45;&#45;e -->
<g id="edge6" class="edge"><title>d&#45;&#45;e</title>
<path fill="none" stroke="blue" stroke-width="2" d="M141.766,-141.706C154.787,-146.348 176.833,-154.209 189.899,-158.868"/>
</g>
<!-- f -->
<g id="node8" class="node"><title>f</title>
<ellipse fill="#d0d0d0" stroke="black" cx="147.206" cy="-209.896" rx="11" ry="11"/>
<text text-anchor="middle" x="147.206" y="-206.196" font-family="Helvetica,sans-Serif" font-size="14.00">f</text>
</g>
<!-- e&#45;&#45;f -->
<g id="edge7" class="edge"><title>e&#45;&#45;f</title>
<path fill="none" stroke="blue" stroke-width="2" d="M192.189,-170.036C182.232,-178.859 165.662,-193.541 155.654,-202.41"/>
</g>
<!-- f&#45;&#45;d -->
<g id="edge8" class="edge"><title>f&#45;&#45;d</title>
<path fill="none" stroke="blue" stroke-width="2" d="M144.782,-198.969C141.782,-185.448 136.702,-162.553 133.692,-148.983"/>
</g>
</g>
</svg>
