<?xml version="1.0" encoding="UTF-8" standalone="no"?>
<!DOCTYPE svg PUBLIC "-//W3C//DTD SVG 1.1//EN"
 "http://www.w3.org/Graphics/SVG/1.1/DTD/svg11.dtd">
<!-- Generated by graphviz version 2.28.0 (20110507.0327)
 -->
<!-- Title: Caterpillar Pages: 1 -->
<svg width="330pt" height="130pt"
 viewBox="0.00 0.00 330.00 130.00" xmlns="http://www.w3.org/2000/svg" xmlns:xlink="http://www.w3.org/1999/xlink">
<g id="graph1" class="graph" transform="scale(1 1) rotate(0) translate(4 126)">
<title>Caterpillar</title>
<polygon fill="white" stroke="white" points="-4,5 -4,-126 327,-126 327,5 -4,5"/>
<!-- i -->
<g id="node1" class="node"><title>i</title>
<ellipse fill="#d0d0d0" stroke="black" cx="11" cy="-61" rx="11" ry="11"/>
</g>
<!-- c0 -->
<g id="node2" class="node"><title>c0</title>
<ellipse fill="#d0d0d0" stroke="black" cx="61" cy="-61" rx="11" ry="11"/>
</g>
<!-- i&#45;&#45;c0 -->
<g id="edge2" class="edge"><title>i&#45;&#45;c0</title>
<path fill="none" stroke="blue" stroke-width="2" d="M22.0966,-61C30.3825,-61 41.656,-61 49.9344,-61"/>
</g>
<!-- c1 -->
<g id="node3" class="node"><title>c1</title>
<ellipse fill="#d0d0d0" stroke="black" cx="111" cy="-61" rx="11" ry="11"/>
</g>
<!-- c0&#45;&#45;c1 -->
<g id="edge3" class="edge"><title>c0&#45;&#45;c1</title>
<path fill="none" stroke="blue" stroke-width="2" d="M72.0966,-61C80.3825,-61 91.656,-61 99.9344,-61"/>
</g>
<!-- b0 -->
<g id="node13" class="node"><title>b0</title>
<ellipse fill="#d0d0d0" stroke="black" cx="61" cy="-111" rx="11" ry="11"/>
</g>
<!-- c0&#45;&#45;b0 -->
<g id="edge10" class="edge"><title>c0&#45;&#45;b0</title>
<path fill="none" stroke="blue" stroke-width="2" d="M61,-72.0966C61,-80.3825 61,-91.656 61,-99.9344"/>
</g>
<!-- c2 -->
<g id="node4" class="node"><title>c2</title>
<ellipse fill="#d0d0d0" stroke="black" cx="161" cy="-61" rx="11" ry="11"/>
</g>
<!-- c1&#45;&#45;c2 -->
<g id="edge4" class="edge"><title>c1&#45;&#45;c2</title>
<path fill="none" stroke="blue" stroke-width="2" d="M122.097,-61C130.382,-61 141.656,-61 149.934,-61"/>
</g>
<!-- b1 -->
<g id="node14" class="node"><title>b1</title>
<ellipse fill="#d0d0d0" stroke="black" cx="111" cy="-111" rx="11" ry="11"/>
</g>
<!-- c1&#45;&#45;b1 -->
<g id="edge13" class="edge"><title>c1&#45;&#45;b1</title>
<path fill="none" stroke="blue" stroke-width="2" d="M111,-72.0966C111,-80.3825 111,-91.656 111,-99.9344"/>
</g>
<!-- c3 -->
<g id="node5" class="node"><title>c3</title>
<ellipse fill="#d0d0d0" stroke="black" cx="211" cy="-61" rx="11" ry="11"/>
</g>
<!-- c2&#45;&#45;c3 -->
<g id="edge5" class="edge"><title>c2&#45;&#45;c3</title>
<path fill="none" stroke="blue" stroke-width="2" d="M172.097,-61C180.382,-61 191.656,-61 199.934,-61"/>
</g>
<!-- b2 -->
<g id="node15" class="node"><title>b2</title>
<ellipse fill="#d0d0d0" stroke="black" cx="161" cy="-111" rx="11" ry="11"/>
</g>
<!-- c2&#45;&#45;b2 -->
<g id="edge16" class="edge"><title>c2&#45;&#45;b2</title>
<path fill="none" stroke="blue" stroke-width="2" d="M161,-72.0966C161,-80.3825 161,-91.656 161,-99.9344"/>
</g>
<!-- c4 -->
<g id="node6" class="node"><title>c4</title>
<ellipse fill="#d0d0d0" stroke="black" cx="261" cy="-61" rx="11" ry="11"/>
</g>
<!-- c3&#45;&#45;c4 -->
<g id="edge6" class="edge"><title>c3&#45;&#45;c4</title>
<path fill="none" stroke="blue" stroke-width="2" d="M222.097,-61C230.382,-61 241.656,-61 249.934,-61"/>
</g>
<!-- b3 -->
<g id="node16" class="node"><title>b3</title>
<ellipse fill="#d0d0d0" stroke="black" cx="211" cy="-111" rx="11" ry="11"/>
</g>
<!-- c3&#45;&#45;b3 -->
<g id="edge19" class="edge"><title>c3&#45;&#45;b3</title>
<path fill="none" stroke="blue" stroke-width="2" d="M211,-72.0966C211,-80.3825 211,-91.656 211,-99.9344"/>
</g>
<!-- d -->
<g id="node7" class="node"><title>d</title>
<ellipse fill="#d0d0d0" stroke="black" cx="311" cy="-61" rx="11" ry="11"/>
</g>
<!-- c4&#45;&#45;d -->
<g id="edge7" class="edge"><title>c4&#45;&#45;d</title>
<path fill="none" stroke="blue" stroke-width="2" d="M272.097,-61C280.382,-61 291.656,-61 299.934,-61"/>
</g>
<!-- b4 -->
<g id="node17" class="node"><title>b4</title>
<ellipse fill="#d0d0d0" stroke="black" cx="261" cy="-111" rx="11" ry="11"/>
</g>
<!-- c4&#45;&#45;b4 -->
<g id="edge22" class="edge"><title>c4&#45;&#45;b4</title>
<path fill="none" stroke="blue" stroke-width="2" d="M261,-72.0966C261,-80.3825 261,-91.656 261,-99.9344"/>
</g>
<!-- t0 -->
<g id="node8" class="node"><title>t0</title>
<ellipse fill="#d0d0d0" stroke="black" cx="61" cy="-11" rx="11" ry="11"/>
</g>
<!-- t0&#45;&#45;c0 -->
<g id="edge9" class="edge"><title>t0&#45;&#45;c0</title>
<path fill="none" stroke="blue" stroke-width="2" d="M61,-22.0966C61,-30.3825 61,-41.656 61,-49.9344"/>
</g>
<!-- t1 -->
<g id="node9" class="node"><title>t1</title>
<ellipse fill="#d0d0d0" stroke="black" cx="111" cy="-11" rx="11" ry="11"/>
</g>
<!-- t1&#45;&#45;c1 -->
<g id="edge12" class="edge"><title>t1&#45;&#45;c1</title>
<path fill="none" stroke="blue" stroke-width="2" d="M111,-22.0966C111,-30.3825 111,-41.656 111,-49.9344"/>
</g>
<!-- t2 -->
<g id="node10" class="node"><title>t2</title>
<ellipse fill="#d0d0d0" stroke="black" cx="161" cy="-11" rx="11" ry="11"/>
</g>
<!-- t2&#45;&#45;c2 -->
<g id="edge15" class="edge"><title>t2&#45;&#45;c2</title>
<path fill="none" stroke="blue" stroke-width="2" d="M161,-22.0966C161,-30.3825 161,-41.656 161,-49.9344"/>
</g>
<!-- t3 -->
<g id="node11" class="node"><title>t3</title>
<ellipse fill="#d0d0d0" stroke="black" cx="211" cy="-11" rx="11" ry="11"/>
</g>
<!-- t3&#45;&#45;c3 -->
<g id="edge18" class="edge"><title>t3&#45;&#45;c3</title>
<path fill="none" stroke="blue" stroke-width="2" d="M211,-22.0966C211,-30.3825 211,-41.656 211,-49.9344"/>
</g>
<!-- t4 -->
<g id="node12" class="node"><title>t4</title>
<ellipse fill="#d0d0d0" stroke="black" cx="261" cy="-11" rx="11" ry="11"/>
</g>
<!-- t4&#45;&#45;c4 -->
<g id="edge21" class="edge"><title>t4&#45;&#45;c4</title>
<path fill="none" stroke="blue" stroke-width="2" d="M261,-22.0966C261,-30.3825 261,-41.656 261,-49.9344"/>
</g>
</g>
</svg>
