<?xml version="1.0" encoding="UTF-8" standalone="no"?>
<!DOCTYPE svg PUBLIC "-//W3C//DTD SVG 1.1//EN"
 "http://www.w3.org/Graphics/SVG/1.1/DTD/svg11.dtd">
<!-- Generated by graphviz version 2.28.0 (20110507.0327)
 -->
<!-- Title: Caterpillar Pages: 1 -->
<svg width="230pt" height="130pt"
 viewBox="0.00 0.00 230.00 130.00" xmlns="http://www.w3.org/2000/svg" xmlns:xlink="http://www.w3.org/1999/xlink">
<g id="graph1" class="graph" transform="scale(1 1) rotate(0) translate(4 126)">
<title>Caterpillar</title>
<polygon fill="white" stroke="white" points="-4,5 -4,-126 227,-126 227,5 -4,5"/>
<!-- i -->
<g id="node1" class="node"><title>i</title>
<ellipse fill="#d0d0d0" stroke="black" cx="61" cy="-61" rx="11" ry="11"/>
</g>
<!-- d -->
<g id="node2" class="node"><title>d</title>
<ellipse fill="#d0d0d0" stroke="black" cx="161" cy="-61" rx="11" ry="11"/>
</g>
<!-- i&#45;&#45;d -->
<g id="edge2" class="edge"><title>i&#45;&#45;d</title>
<path fill="none" stroke="blue" stroke-width="2" d="M72.0838,-61C91.3059,-61 130.61,-61 149.867,-61"/>
</g>
<!-- ih -->
<g id="node3" class="node"><title>ih</title>
<ellipse fill="#d0d0d0" stroke="black" cx="11" cy="-61" rx="11" ry="11"/>
</g>
<!-- i&#45;&#45;ih -->
<g id="edge4" class="edge"><title>i&#45;&#45;ih</title>
<path fill="none" stroke="blue" stroke-width="2" d="M49.9034,-61C41.6175,-61 30.344,-61 22.0656,-61"/>
</g>
<!-- it1 -->
<g id="node4" class="node"><title>it1</title>
<ellipse fill="#d0d0d0" stroke="black" cx="36" cy="-11" rx="11" ry="11"/>
</g>
<!-- i&#45;&#45;it1 -->
<g id="edge6" class="edge"><title>i&#45;&#45;it1</title>
<path fill="none" stroke="blue" stroke-width="2" d="M55.9409,-50.8818C51.6035,-42.207 45.3868,-29.7736 41.0516,-21.1032"/>
</g>
<!-- it2 -->
<g id="node5" class="node"><title>it2</title>
<ellipse fill="#d0d0d0" stroke="black" cx="86" cy="-11" rx="11" ry="11"/>
</g>
<!-- i&#45;&#45;it2 -->
<g id="edge8" class="edge"><title>i&#45;&#45;it2</title>
<path fill="none" stroke="blue" stroke-width="2" d="M66.0591,-50.8818C70.3965,-42.207 76.6132,-29.7736 80.9484,-21.1032"/>
</g>
<!-- ib1 -->
<g id="node6" class="node"><title>ib1</title>
<ellipse fill="#d0d0d0" stroke="black" cx="36" cy="-111" rx="11" ry="11"/>
</g>
<!-- i&#45;&#45;ib1 -->
<g id="edge10" class="edge"><title>i&#45;&#45;ib1</title>
<path fill="none" stroke="blue" stroke-width="2" d="M55.9409,-71.1182C51.6035,-79.793 45.3868,-92.2264 41.0516,-100.897"/>
</g>
<!-- ib2 -->
<g id="node7" class="node"><title>ib2</title>
<ellipse fill="#d0d0d0" stroke="black" cx="86" cy="-111" rx="11" ry="11"/>
</g>
<!-- i&#45;&#45;ib2 -->
<g id="edge12" class="edge"><title>i&#45;&#45;ib2</title>
<path fill="none" stroke="blue" stroke-width="2" d="M66.0591,-71.1182C70.3965,-79.793 76.6132,-92.2264 80.9484,-100.897"/>
</g>
<!-- dh -->
<g id="node8" class="node"><title>dh</title>
<ellipse fill="#d0d0d0" stroke="black" cx="211" cy="-61" rx="11" ry="11"/>
</g>
<!-- d&#45;&#45;dh -->
<g id="edge14" class="edge"><title>d&#45;&#45;dh</title>
<path fill="none" stroke="blue" stroke-width="2" d="M172.097,-61C180.382,-61 191.656,-61 199.934,-61"/>
</g>
<!-- dt1 -->
<g id="node9" class="node"><title>dt1</title>
<ellipse fill="#d0d0d0" stroke="black" cx="136" cy="-11" rx="11" ry="11"/>
</g>
<!-- d&#45;&#45;dt1 -->
<g id="edge16" class="edge"><title>d&#45;&#45;dt1</title>
<path fill="none" stroke="blue" stroke-width="2" d="M155.941,-50.8818C151.603,-42.207 145.387,-29.7736 141.052,-21.1032"/>
</g>
<!-- dt2 -->
<g id="node10" class="node"><title>dt2</title>
<ellipse fill="#d0d0d0" stroke="black" cx="186" cy="-11" rx="11" ry="11"/>
</g>
<!-- d&#45;&#45;dt2 -->
<g id="edge18" class="edge"><title>d&#45;&#45;dt2</title>
<path fill="none" stroke="blue" stroke-width="2" d="M166.059,-50.8818C170.397,-42.207 176.613,-29.7736 180.948,-21.1032"/>
</g>
<!-- db1 -->
<g id="node11" class="node"><title>db1</title>
<ellipse fill="#d0d0d0" stroke="black" cx="136" cy="-111" rx="11" ry="11"/>
</g>
<!-- d&#45;&#45;db1 -->
<g id="edge20" class="edge"><title>d&#45;&#45;db1</title>
<path fill="none" stroke="blue" stroke-width="2" d="M155.941,-71.1182C151.603,-79.793 145.387,-92.2264 141.052,-100.897"/>
</g>
<!-- db2 -->
<g id="node12" class="node"><title>db2</title>
<ellipse fill="#d0d0d0" stroke="black" cx="186" cy="-111" rx="11" ry="11"/>
</g>
<!-- d&#45;&#45;db2 -->
<g id="edge22" class="edge"><title>d&#45;&#45;db2</title>
<path fill="none" stroke="blue" stroke-width="2" d="M166.059,-71.1182C170.397,-79.793 176.613,-92.2264 180.948,-100.897"/>
</g>
</g>
</svg>
