<?xml version="1.0" encoding="UTF-8" standalone="no"?>
<!DOCTYPE svg PUBLIC "-//W3C//DTD SVG 1.1//EN"
 "http://www.w3.org/Graphics/SVG/1.1/DTD/svg11.dtd">
<!-- Generated by graphviz version 2.28.0 (20110507.0327)
 -->
<!-- Title: Grid2D Pages: 1 -->
<svg width="230pt" height="180pt"
 viewBox="0.00 0.00 230.00 180.00" xmlns="http://www.w3.org/2000/svg" xmlns:xlink="http://www.w3.org/1999/xlink">
<g id="graph1" class="graph" transform="scale(1 1) rotate(0) translate(4 176)">
<title>Grid2D</title>
<polygon fill="white" stroke="white" points="-4,5 -4,-176 227,-176 227,5 -4,5"/>
<!-- n00 -->
<g id="node1" class="node"><title>n00</title>
<ellipse fill="#d0d0d0" stroke="black" cx="11" cy="-11" rx="11" ry="11"/>
</g>
<!-- n01 -->
<g id="node2" class="node"><title>n01</title>
<ellipse fill="#d0d0d0" stroke="black" cx="61" cy="-11" rx="11" ry="11"/>
</g>
<!-- n00&#45;&#45;n01 -->
<g id="edge2" class="edge"><title>n00&#45;&#45;n01</title>
<path fill="none" stroke="blue" stroke-width="2" d="M22.0966,-11C30.3825,-11 41.656,-11 49.9344,-11"/>
</g>
<!-- n10 -->
<g id="node6" class="node"><title>n10</title>
<ellipse fill="#d0d0d0" stroke="black" cx="11" cy="-61" rx="11" ry="11"/>
</g>
<!-- n00&#45;&#45;n10 -->
<g id="edge22" class="edge"><title>n00&#45;&#45;n10</title>
<path fill="none" stroke="blue" stroke-width="2" d="M11,-22.0966C11,-30.3825 11,-41.656 11,-49.9344"/>
</g>
<!-- n02 -->
<g id="node3" class="node"><title>n02</title>
<ellipse fill="#d0d0d0" stroke="black" cx="111" cy="-11" rx="11" ry="11"/>
</g>
<!-- n01&#45;&#45;n02 -->
<g id="edge3" class="edge"><title>n01&#45;&#45;n02</title>
<path fill="none" stroke="blue" stroke-width="2" d="M72.0966,-11C80.3825,-11 91.656,-11 99.9344,-11"/>
</g>
<!-- n11 -->
<g id="node7" class="node"><title>n11</title>
<ellipse fill="#d0d0d0" stroke="black" cx="61" cy="-61" rx="11" ry="11"/>
</g>
<!-- n01&#45;&#45;n11 -->
<g id="edge26" class="edge"><title>n01&#45;&#45;n11</title>
<path fill="none" stroke="blue" stroke-width="2" d="M61,-22.0966C61,-30.3825 61,-41.656 61,-49.9344"/>
</g>
<!-- n03 -->
<g id="node4" class="node"><title>n03</title>
<ellipse fill="#d0d0d0" stroke="black" cx="161" cy="-11" rx="11" ry="11"/>
</g>
<!-- n02&#45;&#45;n03 -->
<g id="edge4" class="edge"><title>n02&#45;&#45;n03</title>
<path fill="none" stroke="blue" stroke-width="2" d="M122.097,-11C130.382,-11 141.656,-11 149.934,-11"/>
</g>
<!-- n12 -->
<g id="node8" class="node"><title>n12</title>
<ellipse fill="#d0d0d0" stroke="black" cx="111" cy="-61" rx="11" ry="11"/>
</g>
<!-- n02&#45;&#45;n12 -->
<g id="edge30" class="edge"><title>n02&#45;&#45;n12</title>
<path fill="none" stroke="blue" stroke-width="2" d="M111,-22.0966C111,-30.3825 111,-41.656 111,-49.9344"/>
</g>
<!-- n04 -->
<g id="node5" class="node"><title>n04</title>
<ellipse fill="#d0d0d0" stroke="black" cx="211" cy="-11" rx="11" ry="11"/>
</g>
<!-- n03&#45;&#45;n04 -->
<g id="edge5" class="edge"><title>n03&#45;&#45;n04</title>
<path fill="none" stroke="blue" stroke-width="2" d="M172.097,-11C180.382,-11 191.656,-11 199.934,-11"/>
</g>
<!-- n13 -->
<g id="node9" class="node"><title>n13</title>
<ellipse fill="#d0d0d0" stroke="black" cx="161" cy="-61" rx="11" ry="11"/>
</g>
<!-- n03&#45;&#45;n13 -->
<g id="edge34" class="edge"><title>n03&#45;&#45;n13</title>
<path fill="none" stroke="blue" stroke-width="2" d="M161,-22.0966C161,-30.3825 161,-41.656 161,-49.9344"/>
</g>
<!-- n14 -->
<g id="node10" class="node"><title>n14</title>
<ellipse fill="#d0d0d0" stroke="black" cx="211" cy="-61" rx="11" ry="11"/>
</g>
<!-- n04&#45;&#45;n14 -->
<g id="edge38" class="edge"><title>n04&#45;&#45;n14</title>
<path fill="none" stroke="blue" stroke-width="2" d="M211,-22.0966C211,-30.3825 211,-41.656 211,-49.9344"/>
</g>
<!-- n10&#45;&#45;n11 -->
<g id="edge7" class="edge"><title>n10&#45;&#45;n11</title>
<path fill="none" stroke="blue" stroke-width="2" d="M22.0966,-61C30.3825,-61 41.656,-61 49.9344,-61"/>
</g>
<!-- n20 -->
<g id="node11" class="node"><title>n20</title>
<ellipse fill="#d0d0d0" stroke="black" cx="11" cy="-111" rx="11" ry="11"/>
</g>
<!-- n10&#45;&#45;n20 -->
<g id="edge23" class="edge"><title>n10&#45;&#45;n20</title>
<path fill="none" stroke="blue" stroke-width="2" d="M11,-72.0966C11,-80.3825 11,-91.656 11,-99.9344"/>
</g>
<!-- n11&#45;&#45;n12 -->
<g id="edge8" class="edge"><title>n11&#45;&#45;n12</title>
<path fill="none" stroke="blue" stroke-width="2" d="M72.0966,-61C80.3825,-61 91.656,-61 99.9344,-61"/>
</g>
<!-- n21 -->
<g id="node12" class="node"><title>n21</title>
<ellipse fill="#d0d0d0" stroke="black" cx="61" cy="-111" rx="11" ry="11"/>
</g>
<!-- n11&#45;&#45;n21 -->
<g id="edge27" class="edge"><title>n11&#45;&#45;n21</title>
<path fill="none" stroke="blue" stroke-width="2" d="M61,-72.0966C61,-80.3825 61,-91.656 61,-99.9344"/>
</g>
<!-- n12&#45;&#45;n13 -->
<g id="edge9" class="edge"><title>n12&#45;&#45;n13</title>
<path fill="none" stroke="blue" stroke-width="2" d="M122.097,-61C130.382,-61 141.656,-61 149.934,-61"/>
</g>
<!-- n22 -->
<g id="node13" class="node"><title>n22</title>
<ellipse fill="#d0d0d0" stroke="black" cx="111" cy="-111" rx="11" ry="11"/>
</g>
<!-- n12&#45;&#45;n22 -->
<g id="edge31" class="edge"><title>n12&#45;&#45;n22</title>
<path fill="none" stroke="blue" stroke-width="2" d="M111,-72.0966C111,-80.3825 111,-91.656 111,-99.9344"/>
</g>
<!-- n13&#45;&#45;n14 -->
<g id="edge10" class="edge"><title>n13&#45;&#45;n14</title>
<path fill="none" stroke="blue" stroke-width="2" d="M172.097,-61C180.382,-61 191.656,-61 199.934,-61"/>
</g>
<!-- n23 -->
<g id="node14" class="node"><title>n23</title>
<ellipse fill="#d0d0d0" stroke="black" cx="161" cy="-111" rx="11" ry="11"/>
</g>
<!-- n13&#45;&#45;n23 -->
<g id="edge35" class="edge"><title>n13&#45;&#45;n23</title>
<path fill="none" stroke="blue" stroke-width="2" d="M161,-72.0966C161,-80.3825 161,-91.656 161,-99.9344"/>
</g>
<!-- n24 -->
<g id="node15" class="node"><title>n24</title>
<ellipse fill="#d0d0d0" stroke="black" cx="211" cy="-111" rx="11" ry="11"/>
</g>
<!-- n14&#45;&#45;n24 -->
<g id="edge39" class="edge"><title>n14&#45;&#45;n24</title>
<path fill="none" stroke="blue" stroke-width="2" d="M211,-72.0966C211,-80.3825 211,-91.656 211,-99.9344"/>
</g>
<!-- n20&#45;&#45;n21 -->
<g id="edge12" class="edge"><title>n20&#45;&#45;n21</title>
<path fill="none" stroke="blue" stroke-width="2" d="M22.0966,-111C30.3825,-111 41.656,-111 49.9344,-111"/>
</g>
<!-- n30 -->
<g id="node16" class="node"><title>n30</title>
<ellipse fill="#d0d0d0" stroke="black" cx="11" cy="-161" rx="11" ry="11"/>
</g>
<!-- n20&#45;&#45;n30 -->
<g id="edge24" class="edge"><title>n20&#45;&#45;n30</title>
<path fill="none" stroke="blue" stroke-width="2" d="M11,-122.097C11,-130.382 11,-141.656 11,-149.934"/>
</g>
<!-- n21&#45;&#45;n22 -->
<g id="edge13" class="edge"><title>n21&#45;&#45;n22</title>
<path fill="none" stroke="blue" stroke-width="2" d="M72.0966,-111C80.3825,-111 91.656,-111 99.9344,-111"/>
</g>
<!-- n31 -->
<g id="node17" class="node"><title>n31</title>
<ellipse fill="#d0d0d0" stroke="black" cx="61" cy="-161" rx="11" ry="11"/>
</g>
<!-- n21&#45;&#45;n31 -->
<g id="edge28" class="edge"><title>n21&#45;&#45;n31</title>
<path fill="none" stroke="blue" stroke-width="2" d="M61,-122.097C61,-130.382 61,-141.656 61,-149.934"/>
</g>
<!-- n22&#45;&#45;n23 -->
<g id="edge14" class="edge"><title>n22&#45;&#45;n23</title>
<path fill="none" stroke="blue" stroke-width="2" d="M122.097,-111C130.382,-111 141.656,-111 149.934,-111"/>
</g>
<!-- n32 -->
<g id="node18" class="node"><title>n32</title>
<ellipse fill="#d0d0d0" stroke="black" cx="111" cy="-161" rx="11" ry="11"/>
</g>
<!-- n22&#45;&#45;n32 -->
<g id="edge32" class="edge"><title>n22&#45;&#45;n32</title>
<path fill="none" stroke="blue" stroke-width="2" d="M111,-122.097C111,-130.382 111,-141.656 111,-149.934"/>
</g>
<!-- n23&#45;&#45;n24 -->
<g id="edge15" class="edge"><title>n23&#45;&#45;n24</title>
<path fill="none" stroke="blue" stroke-width="2" d="M172.097,-111C180.382,-111 191.656,-111 199.934,-111"/>
</g>
<!-- n33 -->
<g id="node19" class="node"><title>n33</title>
<ellipse fill="#d0d0d0" stroke="black" cx="161" cy="-161" rx="11" ry="11"/>
</g>
<!-- n23&#45;&#45;n33 -->
<g id="edge36" class="edge"><title>n23&#45;&#45;n33</title>
<path fill="none" stroke="blue" stroke-width="2" d="M161,-122.097C161,-130.382 161,-141.656 161,-149.934"/>
</g>
<!-- n34 -->
<g id="node20" class="node"><title>n34</title>
<ellipse fill="#d0d0d0" stroke="black" cx="211" cy="-161" rx="11" ry="11"/>
</g>
<!-- n24&#45;&#45;n34 -->
<g id="edge40" class="edge"><title>n24&#45;&#45;n34</title>
<path fill="none" stroke="blue" stroke-width="2" d="M211,-122.097C211,-130.382 211,-141.656 211,-149.934"/>
</g>
<!-- n30&#45;&#45;n31 -->
<g id="edge17" class="edge"><title>n30&#45;&#45;n31</title>
<path fill="none" stroke="blue" stroke-width="2" d="M22.0966,-161C30.3825,-161 41.656,-161 49.9344,-161"/>
</g>
<!-- n31&#45;&#45;n32 -->
<g id="edge18" class="edge"><title>n31&#45;&#45;n32</title>
<path fill="none" stroke="blue" stroke-width="2" d="M72.0966,-161C80.3825,-161 91.656,-161 99.9344,-161"/>
</g>
<!-- n32&#45;&#45;n33 -->
<g id="edge19" class="edge"><title>n32&#45;&#45;n33</title>
<path fill="none" stroke="blue" stroke-width="2" d="M122.097,-161C130.382,-161 141.656,-161 149.934,-161"/>
</g>
<!-- n33&#45;&#45;n34 -->
<g id="edge20" class="edge"><title>n33&#45;&#45;n34</title>
<path fill="none" stroke="blue" stroke-width="2" d="M172.097,-161C180.382,-161 191.656,-161 199.934,-161"/>
</g>
</g>
</svg>
