<?xml version="1.0" encoding="UTF-8" standalone="no"?>
<!DOCTYPE svg PUBLIC "-//W3C//DTD SVG 1.1//EN"
 "http://www.w3.org/Graphics/SVG/1.1/DTD/svg11.dtd">
<!-- Generated by graphviz version 2.28.0 (20110507.0327)
 -->
<!-- Title: K33 Pages: 1 -->
<svg width="210pt" height="185pt"
 viewBox="0.00 0.00 209.53 185.47" xmlns="http://www.w3.org/2000/svg" xmlns:xlink="http://www.w3.org/1999/xlink">
<g id="graph1" class="graph" transform="scale(1 1) rotate(0) translate(4 181.475)">
<title>K33</title>
<polygon fill="white" stroke="white" points="-4,5 -4,-181.475 206.527,-181.475 206.527,5 -4,5"/>
<!-- a1 -->
<g id="node1" class="node"><title>a1</title>
<ellipse fill="#d0d0d0" stroke="black" cx="145.645" cy="-11" rx="11" ry="11"/>
</g>
<!-- b1 -->
<g id="node3" class="node"><title>b1</title>
<ellipse fill="#d0d0d0" stroke="black" cx="190.527" cy="-88.7374" rx="11" ry="11"/>
</g>
<!-- a1&#45;&#45;b1 -->
<g id="edge2" class="edge"><title>a1&#45;&#45;b1</title>
<path fill="none" stroke="blue" stroke-width="2" d="M151.148,-20.5321C159.762,-35.452 176.337,-64.1595 184.978,-79.1273"/>
</g>
<!-- b2 -->
<g id="node5" class="node"><title>b2</title>
<ellipse fill="#d0d0d0" stroke="black" cx="55.8817" cy="-11" rx="11" ry="11"/>
</g>
<!-- a1&#45;&#45;b2 -->
<g id="edge4" class="edge"><title>a1&#45;&#45;b2</title>
<path fill="none" stroke="blue" stroke-width="2" d="M134.638,-11C117.41,-11 84.2618,-11 66.9785,-11"/>
</g>
<!-- b3 -->
<g id="node7" class="node"><title>b3</title>
<ellipse fill="#d0d0d0" stroke="black" cx="55.8817" cy="-166.475" rx="11" ry="11"/>
</g>
<!-- a1&#45;&#45;b3 -->
<g id="edge6" class="edge"><title>a1&#45;&#45;b3</title>
<path fill="none" stroke="blue" stroke-width="2" d="M140.03,-20.7256C123.91,-48.6468 77.6123,-128.836 61.4947,-156.753"/>
</g>
<!-- a2 -->
<g id="node8" class="node"><title>a2</title>
<ellipse fill="#d0d0d0" stroke="black" cx="11" cy="-88.7374" rx="11" ry="11"/>
</g>
<!-- a2&#45;&#45;b1 -->
<g id="edge8" class="edge"><title>a2&#45;&#45;b1</title>
<path fill="none" stroke="blue" stroke-width="2" d="M22.2302,-88.7374C54.4708,-88.7374 147.066,-88.7374 179.301,-88.7374"/>
</g>
<!-- a2&#45;&#45;b2 -->
<g id="edge10" class="edge"><title>a2&#45;&#45;b2</title>
<path fill="none" stroke="blue" stroke-width="2" d="M16.5034,-79.2052C25.1174,-64.2853 41.6917,-35.5779 50.3333,-20.6101"/>
</g>
<!-- a2&#45;&#45;b3 -->
<g id="edge12" class="edge"><title>a2&#45;&#45;b3</title>
<path fill="none" stroke="blue" stroke-width="2" d="M16.5034,-98.2695C25.1174,-113.189 41.6917,-141.897 50.3333,-156.865"/>
</g>
<!-- a3 -->
<g id="node12" class="node"><title>a3</title>
<ellipse fill="#d0d0d0" stroke="black" cx="145.645" cy="-166.475" rx="11" ry="11"/>
</g>
<!-- a3&#45;&#45;b1 -->
<g id="edge14" class="edge"><title>a3&#45;&#45;b1</title>
<path fill="none" stroke="blue" stroke-width="2" d="M151.148,-156.943C159.762,-142.023 176.337,-113.315 184.978,-98.3475"/>
</g>
<!-- a3&#45;&#45;b2 -->
<g id="edge16" class="edge"><title>a3&#45;&#45;b2</title>
<path fill="none" stroke="blue" stroke-width="2" d="M140.03,-156.749C123.91,-128.828 77.6123,-48.6385 61.4947,-20.722"/>
</g>
<!-- a3&#45;&#45;b3 -->
<g id="edge18" class="edge"><title>a3&#45;&#45;b3</title>
<path fill="none" stroke="blue" stroke-width="2" d="M134.638,-166.475C117.41,-166.475 84.2618,-166.475 66.9785,-166.475"/>
</g>
</g>
</svg>
