<?xml version="1.0" encoding="UTF-8" standalone="no"?>
<!DOCTYPE svg PUBLIC "-//W3C//DTD SVG 1.1//EN"
 "http://www.w3.org/Graphics/SVG/1.1/DTD/svg11.dtd">
<!-- Generated by graphviz version 2.28.0 (20110507.0327)
 -->
<!-- Title: K33pos Pages: 1 -->
<svg width="130pt" height="130pt"
 viewBox="0.00 0.00 130.00 130.00" xmlns="http://www.w3.org/2000/svg" xmlns:xlink="http://www.w3.org/1999/xlink">
<g id="graph1" class="graph" transform="scale(1 1) rotate(0) translate(4 126)">
<title>K33pos</title>
<polygon fill="white" stroke="white" points="-4,5 -4,-126 127,-126 127,5 -4,5"/>
<!-- a1 -->
<g id="node1" class="node"><title>a1</title>
<ellipse fill="#d0d0d0" stroke="black" cx="11" cy="-11" rx="11" ry="11"/>
</g>
<!-- b1 -->
<g id="node4" class="node"><title>b1</title>
<ellipse fill="#d0d0d0" stroke="black" cx="111" cy="-11" rx="11" ry="11"/>
</g>
<!-- a1&#45;&#45;b1 -->
<g id="edge2" class="edge"><title>a1&#45;&#45;b1</title>
<path fill="none" stroke="blue" stroke-width="2" d="M22.0838,-11C41.3059,-11 80.61,-11 99.8665,-11"/>
</g>
<!-- b2 -->
<g id="node5" class="node"><title>b2</title>
<ellipse fill="#d0d0d0" stroke="black" cx="111" cy="-61" rx="11" ry="11"/>
</g>
<!-- a1&#45;&#45;b2 -->
<g id="edge4" class="edge"><title>a1&#45;&#45;b2</title>
<path fill="none" stroke="blue" stroke-width="2" d="M20.954,-15.977C40.122,-25.561 81.9501,-46.475 101.086,-56.0431"/>
</g>
<!-- b3 -->
<g id="node6" class="node"><title>b3</title>
<ellipse fill="#d0d0d0" stroke="black" cx="111" cy="-111" rx="11" ry="11"/>
</g>
<!-- a1&#45;&#45;b3 -->
<g id="edge6" class="edge"><title>a1&#45;&#45;b3</title>
<path fill="none" stroke="blue" stroke-width="2" d="M18.8468,-18.8468C37.5403,-37.5403 84.533,-84.533 103.19,-103.19"/>
</g>
<!-- a2 -->
<g id="node2" class="node"><title>a2</title>
<ellipse fill="#d0d0d0" stroke="black" cx="11" cy="-61" rx="11" ry="11"/>
</g>
<!-- a2&#45;&#45;b1 -->
<g id="edge8" class="edge"><title>a2&#45;&#45;b1</title>
<path fill="none" stroke="blue" stroke-width="2" d="M20.954,-56.023C40.122,-46.439 81.9501,-25.525 101.086,-15.9569"/>
</g>
<!-- a2&#45;&#45;b2 -->
<g id="edge10" class="edge"><title>a2&#45;&#45;b2</title>
<path fill="none" stroke="blue" stroke-width="2" d="M22.0838,-61C41.3059,-61 80.61,-61 99.8665,-61"/>
</g>
<!-- a2&#45;&#45;b3 -->
<g id="edge12" class="edge"><title>a2&#45;&#45;b3</title>
<path fill="none" stroke="blue" stroke-width="2" d="M20.954,-65.977C40.122,-75.561 81.9501,-96.475 101.086,-106.043"/>
</g>
<!-- a3 -->
<g id="node3" class="node"><title>a3</title>
<ellipse fill="#d0d0d0" stroke="black" cx="11" cy="-111" rx="11" ry="11"/>
</g>
<!-- a3&#45;&#45;b1 -->
<g id="edge14" class="edge"><title>a3&#45;&#45;b1</title>
<path fill="none" stroke="blue" stroke-width="2" d="M18.8468,-103.153C37.5403,-84.4597 84.533,-37.467 103.19,-18.8104"/>
</g>
<!-- a3&#45;&#45;b2 -->
<g id="edge16" class="edge"><title>a3&#45;&#45;b2</title>
<path fill="none" stroke="blue" stroke-width="2" d="M20.954,-106.023C40.122,-96.439 81.9501,-75.525 101.086,-65.9569"/>
</g>
<!-- a3&#45;&#45;b3 -->
<g id="edge18" class="edge"><title>a3&#45;&#45;b3</title>
<path fill="none" stroke="blue" stroke-width="2" d="M22.0838,-111C41.3059,-111 80.61,-111 99.8665,-111"/>
</g>
</g>
</svg>
