<?xml version="1.0" encoding="UTF-8" standalone="no"?>
<!DOCTYPE svg PUBLIC "-//W3C//DTD SVG 1.1//EN"
 "http://www.w3.org/Graphics/SVG/1.1/DTD/svg11.dtd">
<!-- Generated by graphviz version 2.28.0 (20110507.0327)
 -->
<!-- Title: K4 Pages: 1 -->
<svg width="138pt" height="155pt"
 viewBox="0.00 0.00 138.00 154.71" xmlns="http://www.w3.org/2000/svg" xmlns:xlink="http://www.w3.org/1999/xlink">
<g id="graph1" class="graph" transform="scale(1 1) rotate(0) translate(4 150.708)">
<title>K4</title>
<polygon fill="white" stroke="white" points="-4,5 -4,-150.708 135,-150.708 135,5 -4,5"/>
<!-- n1 -->
<g id="node1" class="node"><title>n1</title>
<ellipse fill="#d0d0d0" stroke="black" cx="83" cy="-73.3538" rx="11" ry="11"/>
</g>
<!-- n2 -->
<g id="node3" class="node"><title>n2</title>
<ellipse fill="#d0d0d0" stroke="black" cx="119" cy="-135.708" rx="11" ry="11"/>
</g>
<!-- n1&#45;&#45;n2 -->
<g id="edge2" class="edge"><title>n1&#45;&#45;n2</title>
<path fill="none" stroke="blue" stroke-width="2" d="M88.625,-83.0966C95.3486,-94.7423 106.537,-114.121 113.296,-125.828"/>
</g>
<!-- n3 -->
<g id="node5" class="node"><title>n3</title>
<ellipse fill="#d0d0d0" stroke="black" cx="11" cy="-73.3538" rx="11" ry="11"/>
</g>
<!-- n1&#45;&#45;n3 -->
<g id="edge4" class="edge"><title>n1&#45;&#45;n3</title>
<path fill="none" stroke="blue" stroke-width="2" d="M71.75,-73.3538C58.3027,-73.3538 35.9256,-73.3538 22.4086,-73.3538"/>
</g>
<!-- n4 -->
<g id="node7" class="node"><title>n4</title>
<ellipse fill="#d0d0d0" stroke="black" cx="119" cy="-11" rx="11" ry="11"/>
</g>
<!-- n1&#45;&#45;n4 -->
<g id="edge6" class="edge"><title>n1&#45;&#45;n4</title>
<path fill="none" stroke="blue" stroke-width="2" d="M88.625,-63.611C95.3486,-51.9654 106.537,-32.5862 113.296,-20.8801"/>
</g>
<!-- n2&#45;&#45;n3 -->
<g id="edge8" class="edge"><title>n2&#45;&#45;n3</title>
<path fill="none" stroke="blue" stroke-width="2" d="M109.416,-130.174C88.9725,-118.371 41.2796,-90.8357 20.718,-78.9645"/>
</g>
<!-- n2&#45;&#45;n4 -->
<g id="edge10" class="edge"><title>n2&#45;&#45;n4</title>
<path fill="none" stroke="blue" stroke-width="2" d="M119,-124.641C119,-101.035 119,-45.9638 119,-22.2214"/>
</g>
<!-- n3&#45;&#45;n4 -->
<g id="edge12" class="edge"><title>n3&#45;&#45;n4</title>
<path fill="none" stroke="blue" stroke-width="2" d="M20.5843,-67.8203C41.0275,-56.0174 88.7204,-28.4819 109.282,-16.6107"/>
</g>
</g>
</svg>
