<?xml version="1.0" encoding="UTF-8" standalone="no"?>
<!DOCTYPE svg PUBLIC "-//W3C//DTD SVG 1.1//EN"
 "http://www.w3.org/Graphics/SVG/1.1/DTD/svg11.dtd">
<!-- Generated by graphviz version 2.28.0 (20110507.0327)
 -->
<!-- Title: K4 Pages: 1 -->
<svg width="150pt" height="150pt"
 viewBox="0.00 0.00 149.68 149.68" xmlns="http://www.w3.org/2000/svg" xmlns:xlink="http://www.w3.org/1999/xlink">
<g id="graph1" class="graph" transform="scale(1 1) rotate(0) translate(4 145.685)">
<title>K4</title>
<polygon fill="white" stroke="white" points="-4,5 -4,-145.685 146.685,-145.685 146.685,5 -4,5"/>
<!-- n1 -->
<g id="node1" class="node"><title>n1</title>
<ellipse fill="#d0d0d0" stroke="black" cx="70.8423" cy="-11" rx="11" ry="11"/>
</g>
<!-- n2 -->
<g id="node3" class="node"><title>n2</title>
<ellipse fill="#d0d0d0" stroke="black" cx="130.685" cy="-70.8423" rx="11" ry="11"/>
</g>
<!-- n1&#45;&#45;n2 -->
<g id="edge2" class="edge"><title>n1&#45;&#45;n2</title>
<path fill="none" stroke="blue" stroke-width="2" d="M78.6656,-18.8233C90.0709,-30.2287 111.155,-51.3126 122.668,-62.826"/>
</g>
<!-- n3 -->
<g id="node5" class="node"><title>n3</title>
<ellipse fill="#d0d0d0" stroke="black" cx="70.8423" cy="-130.685" rx="11" ry="11"/>
</g>
<!-- n1&#45;&#45;n3 -->
<g id="edge4" class="edge"><title>n1&#45;&#45;n3</title>
<path fill="none" stroke="blue" stroke-width="2" d="M70.8423,-22.0451C70.8423,-44.8455 70.8423,-96.8886 70.8423,-119.666"/>
</g>
<!-- n4 -->
<g id="node7" class="node"><title>n4</title>
<ellipse fill="#d0d0d0" stroke="black" cx="11" cy="-70.8423" rx="11" ry="11"/>
</g>
<!-- n1&#45;&#45;n4 -->
<g id="edge6" class="edge"><title>n1&#45;&#45;n4</title>
<path fill="none" stroke="blue" stroke-width="2" d="M63.0189,-18.8233C51.6136,-30.2287 30.5296,-51.3126 19.0163,-62.826"/>
</g>
<!-- n2&#45;&#45;n3 -->
<g id="edge8" class="edge"><title>n2&#45;&#45;n3</title>
<path fill="none" stroke="blue" stroke-width="2" d="M122.861,-78.6656C111.456,-90.0709 90.3719,-111.155 78.8585,-122.668"/>
</g>
<!-- n2&#45;&#45;n4 -->
<g id="edge10" class="edge"><title>n2&#45;&#45;n4</title>
<path fill="none" stroke="blue" stroke-width="2" d="M119.639,-70.8423C96.839,-70.8423 44.796,-70.8423 22.0184,-70.8423"/>
</g>
<!-- n3&#45;&#45;n4 -->
<g id="edge12" class="edge"><title>n3&#45;&#45;n4</title>
<path fill="none" stroke="blue" stroke-width="2" d="M63.0189,-122.861C51.6136,-111.456 30.5296,-90.3719 19.0163,-78.8585"/>
</g>
</g>
</svg>
