<?xml version="1.0" encoding="UTF-8" standalone="no"?>
<!DOCTYPE svg PUBLIC "-//W3C//DTD SVG 1.1//EN"
 "http://www.w3.org/Graphics/SVG/1.1/DTD/svg11.dtd">
<!-- Generated by graphviz version 2.28.0 (20110507.0327)
 -->
<!-- Title: K5 Pages: 1 -->
<svg width="165pt" height="172pt"
 viewBox="0.00 0.00 165.32 172.28" xmlns="http://www.w3.org/2000/svg" xmlns:xlink="http://www.w3.org/1999/xlink">
<g id="graph1" class="graph" transform="scale(1 1) rotate(0) translate(4 168.283)">
<title>K5</title>
<polygon fill="white" stroke="white" points="-4,5 -4,-168.283 162.32,-168.283 162.32,5 -4,5"/>
<!-- n1 -->
<g id="node1" class="node"><title>n1</title>
<ellipse fill="#d0d0d0" stroke="black" cx="94.6321" cy="-11" rx="11" ry="11"/>
</g>
<!-- n2 -->
<g id="node3" class="node"><title>n2</title>
<ellipse fill="#d0d0d0" stroke="black" cx="146.32" cy="-82.1417" rx="11" ry="11"/>
</g>
<!-- n1&#45;&#45;n2 -->
<g id="edge2" class="edge"><title>n1&#45;&#45;n2</title>
<path fill="none" stroke="blue" stroke-width="2" d="M101.178,-20.0101C111.066,-33.6198 129.711,-59.2815 139.663,-72.98"/>
</g>
<!-- n3 -->
<g id="node5" class="node"><title>n3</title>
<ellipse fill="#d0d0d0" stroke="black" cx="11" cy="-126.11" rx="11" ry="11"/>
</g>
<!-- n1&#45;&#45;n3 -->
<g id="edge4" class="edge"><title>n1&#45;&#45;n3</title>
<path fill="none" stroke="blue" stroke-width="2" d="M88.0696,-20.0325C72.4359,-41.5505 33.1349,-95.6436 17.532,-117.119"/>
</g>
<!-- n4 -->
<g id="node7" class="node"><title>n4</title>
<ellipse fill="#d0d0d0" stroke="black" cx="94.6321" cy="-153.283" rx="11" ry="11"/>
</g>
<!-- n1&#45;&#45;n4 -->
<g id="edge6" class="edge"><title>n1&#45;&#45;n4</title>
<path fill="none" stroke="blue" stroke-width="2" d="M94.6321,-22.1647C94.6321,-48.7625 94.6321,-115.625 94.6321,-142.171"/>
</g>
<!-- n5 -->
<g id="node9" class="node"><title>n5</title>
<ellipse fill="#d0d0d0" stroke="black" cx="11" cy="-38.1737" rx="11" ry="11"/>
</g>
<!-- n1&#45;&#45;n5 -->
<g id="edge8" class="edge"><title>n1&#45;&#45;n5</title>
<path fill="none" stroke="blue" stroke-width="2" d="M84.04,-14.4416C67.953,-19.6686 37.5418,-29.5497 21.5061,-34.7601"/>
</g>
<!-- n2&#45;&#45;n3 -->
<g id="edge10" class="edge"><title>n2&#45;&#45;n3</title>
<path fill="none" stroke="blue" stroke-width="2" d="M135.701,-85.5918C110.405,-93.811 46.8151,-114.473 21.569,-122.676"/>
</g>
<!-- n2&#45;&#45;n4 -->
<g id="edge12" class="edge"><title>n2&#45;&#45;n4</title>
<path fill="none" stroke="blue" stroke-width="2" d="M139.773,-91.1519C129.885,-104.762 111.241,-130.423 101.288,-144.122"/>
</g>
<!-- n2&#45;&#45;n5 -->
<g id="edge14" class="edge"><title>n2&#45;&#45;n5</title>
<path fill="none" stroke="blue" stroke-width="2" d="M135.701,-78.6916C110.405,-70.4725 46.8151,-49.8107 21.569,-41.6078"/>
</g>
<!-- n3&#45;&#45;n4 -->
<g id="edge16" class="edge"><title>n3&#45;&#45;n4</title>
<path fill="none" stroke="blue" stroke-width="2" d="M21.5921,-129.551C37.6791,-134.778 68.0903,-144.659 84.126,-149.87"/>
</g>
<!-- n3&#45;&#45;n5 -->
<g id="edge18" class="edge"><title>n3&#45;&#45;n5</title>
<path fill="none" stroke="blue" stroke-width="2" d="M11,-114.973C11,-98.0577 11,-66.0815 11,-49.2204"/>
</g>
<!-- n4&#45;&#45;n5 -->
<g id="edge20" class="edge"><title>n4&#45;&#45;n5</title>
<path fill="none" stroke="blue" stroke-width="2" d="M88.0696,-144.251C72.4359,-122.733 33.1349,-68.6398 17.532,-47.1642"/>
</g>
</g>
</svg>
