<?xml version="1.0" encoding="UTF-8" standalone="no"?>
<!DOCTYPE svg PUBLIC "-//W3C//DTD SVG 1.1//EN"
 "http://www.w3.org/Graphics/SVG/1.1/DTD/svg11.dtd">
<!-- Generated by graphviz version 2.28.0 (20110507.0327)
 -->
<!-- Title: P Pages: 1 -->
<svg width="406pt" height="30pt"
 viewBox="0.00 0.00 406.00 30.00" xmlns="http://www.w3.org/2000/svg" xmlns:xlink="http://www.w3.org/1999/xlink">
<g id="graph1" class="graph" transform="scale(1 1) rotate(0) translate(4 26)">
<title>P</title>
<polygon fill="white" stroke="white" points="-4,5 -4,-26 403,-26 403,5 -4,5"/>
<!-- n1 -->
<g id="node1" class="node"><title>n1</title>
<ellipse fill="#d0d0d0" stroke="black" cx="11" cy="-11" rx="11" ry="11"/>
</g>
<!-- n2 -->
<g id="node3" class="node"><title>n2</title>
<ellipse fill="#d0d0d0" stroke="black" cx="105" cy="-11" rx="11" ry="11"/>
</g>
<!-- n1&#45;&#45;n2 -->
<g id="edge2" class="edge"><title>n1&#45;&#45;n2</title>
<path fill="none" stroke="blue" stroke-width="2" d="M22.1522,-11C40.2433,-11 75.7806,-11 93.8623,-11"/>
</g>
<!-- n3 -->
<g id="node4" class="node"><title>n3</title>
<ellipse fill="#d0d0d0" stroke="black" cx="199" cy="-11" rx="11" ry="11"/>
</g>
<!-- n2&#45;&#45;n3 -->
<g id="edge3" class="edge"><title>n2&#45;&#45;n3</title>
<path fill="none" stroke="blue" stroke-width="2" d="M116.152,-11C134.243,-11 169.781,-11 187.862,-11"/>
</g>
<!-- n4 -->
<g id="node5" class="node"><title>n4</title>
<ellipse fill="#d0d0d0" stroke="black" cx="293" cy="-11" rx="11" ry="11"/>
</g>
<!-- n3&#45;&#45;n4 -->
<g id="edge4" class="edge"><title>n3&#45;&#45;n4</title>
<path fill="none" stroke="blue" stroke-width="2" d="M210.152,-11C228.243,-11 263.781,-11 281.862,-11"/>
</g>
<!-- n5 -->
<g id="node6" class="node"><title>n5</title>
<ellipse fill="#d0d0d0" stroke="black" cx="387" cy="-11" rx="11" ry="11"/>
</g>
<!-- n4&#45;&#45;n5 -->
<g id="edge5" class="edge"><title>n4&#45;&#45;n5</title>
<path fill="none" stroke="blue" stroke-width="2" d="M304.152,-11C322.243,-11 357.781,-11 375.862,-11"/>
</g>
</g>
</svg>
