<?xml version="1.0" encoding="UTF-8" standalone="no"?>
<!DOCTYPE svg PUBLIC "-//W3C//DTD SVG 1.1//EN"
 "http://www.w3.org/Graphics/SVG/1.1/DTD/svg11.dtd">
<!-- Generated by graphviz version 2.28.0 (20110507.0327)
 -->
<!-- Title: Petersen Pages: 1 -->
<svg width="230pt" height="220pt"
 viewBox="0.00 0.00 230.00 220.00" xmlns="http://www.w3.org/2000/svg" xmlns:xlink="http://www.w3.org/1999/xlink">
<g id="graph1" class="graph" transform="scale(1 1) rotate(0) translate(4 216)">
<title>Petersen</title>
<polygon fill="white" stroke="white" points="-4,5 -4,-216 227,-216 227,5 -4,5"/>
<!-- o1 -->
<g id="node1" class="node"><title>o1</title>
<ellipse fill="#d0d0d0" stroke="black" cx="111" cy="-11" rx="11" ry="11"/>
</g>
<!-- o2 -->
<g id="node3" class="node"><title>o2</title>
<ellipse fill="#d0d0d0" stroke="black" cx="11" cy="-86" rx="11" ry="11"/>
</g>
<!-- o1&#45;&#45;o2 -->
<g id="edge22" class="edge"><title>o1&#45;&#45;o2</title>
<path fill="none" stroke="blue" stroke-width="2" d="M102.126,-17.6557C83.1968,-31.8524 39.0366,-64.9725 19.9982,-79.2514"/>
</g>
<!-- i1 -->
<g id="node2" class="node"><title>i1</title>
<ellipse fill="#d0d0d0" stroke="black" cx="111" cy="-66" rx="11" ry="11"/>
</g>
<!-- i1&#45;&#45;o1 -->
<g id="edge2" class="edge"><title>i1&#45;&#45;o1</title>
<path fill="none" stroke="blue" stroke-width="2" d="M111,-54.8699C111,-45.3277 111,-31.651 111,-22.1135"/>
</g>
<!-- i3 -->
<g id="node8" class="node"><title>i3</title>
<ellipse fill="#d0d0d0" stroke="black" cx="86" cy="-151" rx="11" ry="11"/>
</g>
<!-- i1&#45;&#45;i3 -->
<g id="edge4" class="edge"><title>i1&#45;&#45;i3</title>
<path fill="none" stroke="blue" stroke-width="2" d="M107.834,-76.7653C103.025,-93.1154 93.9341,-124.024 89.1406,-140.322"/>
</g>
<!-- i4 -->
<g id="node10" class="node"><title>i4</title>
<ellipse fill="#d0d0d0" stroke="black" cx="136" cy="-151" rx="11" ry="11"/>
</g>
<!-- i1&#45;&#45;i4 -->
<g id="edge6" class="edge"><title>i1&#45;&#45;i4</title>
<path fill="none" stroke="blue" stroke-width="2" d="M114.166,-76.7653C118.975,-93.1154 128.066,-124.024 132.859,-140.322"/>
</g>
<!-- o3 -->
<g id="node7" class="node"><title>o3</title>
<ellipse fill="#d0d0d0" stroke="black" cx="51" cy="-201" rx="11" ry="11"/>
</g>
<!-- o2&#45;&#45;o3 -->
<g id="edge23" class="edge"><title>o2&#45;&#45;o3</title>
<path fill="none" stroke="blue" stroke-width="2" d="M14.6914,-96.6128C22.3116,-118.521 39.705,-168.527 47.3175,-190.413"/>
</g>
<!-- i2 -->
<g id="node4" class="node"><title>i2</title>
<ellipse fill="#d0d0d0" stroke="black" cx="66" cy="-101" rx="11" ry="11"/>
</g>
<!-- i2&#45;&#45;o2 -->
<g id="edge8" class="edge"><title>i2&#45;&#45;o2</title>
<path fill="none" stroke="blue" stroke-width="2" d="M55.1338,-98.0365C45.4915,-95.4068 31.4791,-91.5852 21.8437,-88.9574"/>
</g>
<!-- i5 -->
<g id="node6" class="node"><title>i5</title>
<ellipse fill="#d0d0d0" stroke="black" cx="156" cy="-101" rx="11" ry="11"/>
</g>
<!-- i2&#45;&#45;i5 -->
<g id="edge12" class="edge"><title>i2&#45;&#45;i5</title>
<path fill="none" stroke="blue" stroke-width="2" d="M77.0358,-101C94.3092,-101 127.545,-101 144.874,-101"/>
</g>
<!-- i2&#45;&#45;i4 -->
<g id="edge10" class="edge"><title>i2&#45;&#45;i4</title>
<path fill="none" stroke="blue" stroke-width="2" d="M75.1513,-107.537C88.4926,-117.066 113.155,-134.682 126.623,-144.302"/>
</g>
<!-- o5 -->
<g id="node5" class="node"><title>o5</title>
<ellipse fill="#d0d0d0" stroke="black" cx="211" cy="-86" rx="11" ry="11"/>
</g>
<!-- o5&#45;&#45;o1 -->
<g id="edge26" class="edge"><title>o5&#45;&#45;o1</title>
<path fill="none" stroke="blue" stroke-width="2" d="M202.126,-79.3443C183.197,-65.1476 139.037,-32.0275 119.998,-17.7486"/>
</g>
<!-- i5&#45;&#45;o5 -->
<g id="edge20" class="edge"><title>i5&#45;&#45;o5</title>
<path fill="none" stroke="blue" stroke-width="2" d="M166.866,-98.0365C176.508,-95.4068 190.521,-91.5852 200.156,-88.9574"/>
</g>
<!-- o4 -->
<g id="node9" class="node"><title>o4</title>
<ellipse fill="#d0d0d0" stroke="black" cx="171" cy="-201" rx="11" ry="11"/>
</g>
<!-- o3&#45;&#45;o4 -->
<g id="edge24" class="edge"><title>o3&#45;&#45;o4</title>
<path fill="none" stroke="blue" stroke-width="2" d="M62.0742,-201C84.9347,-201 137.115,-201 159.953,-201"/>
</g>
<!-- i3&#45;&#45;i5 -->
<g id="edge16" class="edge"><title>i3&#45;&#45;i5</title>
<path fill="none" stroke="blue" stroke-width="2" d="M95.1513,-144.463C108.493,-134.934 133.155,-117.318 146.623,-107.698"/>
</g>
<!-- i3&#45;&#45;o3 -->
<g id="edge14" class="edge"><title>i3&#45;&#45;o3</title>
<path fill="none" stroke="blue" stroke-width="2" d="M79.5805,-160.171C73.2653,-169.192 63.6799,-182.886 57.3788,-191.887"/>
</g>
<!-- o4&#45;&#45;o5 -->
<g id="edge25" class="edge"><title>o4&#45;&#45;o5</title>
<path fill="none" stroke="blue" stroke-width="2" d="M174.691,-190.387C182.312,-168.479 199.705,-118.473 207.318,-96.5871"/>
</g>
<!-- i4&#45;&#45;o4 -->
<g id="edge18" class="edge"><title>i4&#45;&#45;o4</title>
<path fill="none" stroke="blue" stroke-width="2" d="M142.42,-160.171C148.735,-169.192 158.32,-182.886 164.621,-191.887"/>
</g>
</g>
</svg>
