<?xml version="1.0" encoding="UTF-8" standalone="no"?>
<!DOCTYPE svg PUBLIC "-//W3C//DTD SVG 1.1//EN"
 "http://www.w3.org/Graphics/SVG/1.1/DTD/svg11.dtd">
<!-- Generated by graphviz version 2.28.0 (20110507.0327)
 -->
<!-- Title: C Pages: 1 -->
<svg width="291pt" height="295pt"
 viewBox="0.00 0.00 291.17 295.20" xmlns="http://www.w3.org/2000/svg" xmlns:xlink="http://www.w3.org/1999/xlink">
<g id="graph1" class="graph" transform="scale(1 1) rotate(0) translate(4 291.199)">
<title>C</title>
<polygon fill="white" stroke="white" points="-4,5 -4,-291.199 288.17,-291.199 288.17,5 -4,5"/>
<!-- n1 -->
<g id="node1" class="node"><title>n1</title>
<ellipse fill="#d0d0d0" stroke="black" cx="240.669" cy="-57.0513" rx="11" ry="11"/>
</g>
<!-- n2 -->
<g id="node3" class="node"><title>n2</title>
<ellipse fill="#d0d0d0" stroke="black" cx="160.906" cy="-11" rx="11" ry="11"/>
</g>
<!-- n1&#45;&#45;n2 -->
<g id="edge2" class="edge"><title>n1&#45;&#45;n2</title>
<path fill="none" stroke="blue" stroke-width="2" d="M230.889,-51.4045C215.58,-42.566 186.124,-25.5598 170.766,-16.693"/>
</g>
<!-- n3 -->
<g id="node4" class="node"><title>n3</title>
<ellipse fill="#d0d0d0" stroke="black" cx="70.2024" cy="-26.9935" rx="11" ry="11"/>
</g>
<!-- n2&#45;&#45;n3 -->
<g id="edge3" class="edge"><title>n2&#45;&#45;n3</title>
<path fill="none" stroke="blue" stroke-width="2" d="M149.784,-12.9611C132.281,-16.0474 98.5152,-22.0012 81.1321,-25.0663"/>
</g>
<!-- n4 -->
<g id="node5" class="node"><title>n4</title>
<ellipse fill="#d0d0d0" stroke="black" cx="11" cy="-97.5482" rx="11" ry="11"/>
</g>
<!-- n3&#45;&#45;n4 -->
<g id="edge4" class="edge"><title>n3&#45;&#45;n4</title>
<path fill="none" stroke="blue" stroke-width="2" d="M62.9431,-35.6449C51.5805,-49.1862 29.7178,-75.2412 18.3188,-88.826"/>
</g>
<!-- n5 -->
<g id="node6" class="node"><title>n5</title>
<ellipse fill="#d0d0d0" stroke="black" cx="11" cy="-189.651" rx="11" ry="11"/>
</g>
<!-- n4&#45;&#45;n5 -->
<g id="edge5" class="edge"><title>n4&#45;&#45;n5</title>
<path fill="none" stroke="blue" stroke-width="2" d="M11,-108.842C11,-126.615 11,-160.901 11,-178.553"/>
</g>
<!-- n6 -->
<g id="node7" class="node"><title>n6</title>
<ellipse fill="#d0d0d0" stroke="black" cx="70.2024" cy="-260.206" rx="11" ry="11"/>
</g>
<!-- n5&#45;&#45;n6 -->
<g id="edge6" class="edge"><title>n5&#45;&#45;n6</title>
<path fill="none" stroke="blue" stroke-width="2" d="M18.2594,-198.302C29.6219,-211.844 51.4847,-237.899 62.8837,-251.483"/>
</g>
<!-- n7 -->
<g id="node8" class="node"><title>n7</title>
<ellipse fill="#d0d0d0" stroke="black" cx="160.906" cy="-276.199" rx="11" ry="11"/>
</g>
<!-- n6&#45;&#45;n7 -->
<g id="edge7" class="edge"><title>n6&#45;&#45;n7</title>
<path fill="none" stroke="blue" stroke-width="2" d="M81.3245,-262.167C98.8275,-265.253 132.593,-271.207 149.976,-274.272"/>
</g>
<!-- n8 -->
<g id="node9" class="node"><title>n8</title>
<ellipse fill="#d0d0d0" stroke="black" cx="240.669" cy="-230.148" rx="11" ry="11"/>
</g>
<!-- n7&#45;&#45;n8 -->
<g id="edge8" class="edge"><title>n7&#45;&#45;n8</title>
<path fill="none" stroke="blue" stroke-width="2" d="M170.686,-270.552C185.995,-261.714 215.451,-244.708 230.809,-235.841"/>
</g>
<!-- n9 -->
<g id="node10" class="node"><title>n9</title>
<ellipse fill="#d0d0d0" stroke="black" cx="272.17" cy="-143.6" rx="11" ry="11"/>
</g>
<!-- n8&#45;&#45;n9 -->
<g id="edge9" class="edge"><title>n8&#45;&#45;n9</title>
<path fill="none" stroke="blue" stroke-width="2" d="M244.532,-219.535C250.61,-202.834 262.337,-170.615 268.374,-154.028"/>
</g>
<!-- n9&#45;&#45;n1 -->
<g id="edge10" class="edge"><title>n9&#45;&#45;n1</title>
<path fill="none" stroke="blue" stroke-width="2" d="M268.307,-132.987C262.229,-116.286 250.502,-84.067 244.465,-67.4803"/>
</g>
</g>
</svg>
