<?xml version="1.0" encoding="UTF-8" standalone="no"?>
<!DOCTYPE svg PUBLIC "-//W3C//DTD SVG 1.1//EN"
 "http://www.w3.org/Graphics/SVG/1.1/DTD/svg11.dtd">
<!-- Generated by graphviz version 2.28.0 (20110507.0327)
 -->
<!-- Title: star Pages: 1 -->
<svg width="130pt" height="130pt"
 viewBox="0.00 0.00 130.00 130.00" xmlns="http://www.w3.org/2000/svg" xmlns:xlink="http://www.w3.org/1999/xlink">
<g id="graph1" class="graph" transform="scale(1 1) rotate(0) translate(4 126)">
<title>star</title>
<polygon fill="white" stroke="white" points="-4,5 -4,-126 127,-126 127,5 -4,5"/>
<!-- c -->
<g id="node1" class="node"><title>c</title>
<ellipse fill="#d0d0d0" stroke="black" cx="61" cy="-61" rx="11" ry="11"/>
</g>
<!-- i -->
<g id="node2" class="node"><title>i</title>
<ellipse fill="#d0d0d0" stroke="black" cx="11" cy="-61" rx="11" ry="11"/>
</g>
<!-- c&#45;&#45;i -->
<g id="edge2" class="edge"><title>c&#45;&#45;i</title>
<path fill="none" stroke="blue" stroke-width="2" d="M49.9034,-61C41.6175,-61 30.344,-61 22.0656,-61"/>
</g>
<!-- t1 -->
<g id="node3" class="node"><title>t1</title>
<ellipse fill="#d0d0d0" stroke="black" cx="36" cy="-11" rx="11" ry="11"/>
</g>
<!-- c&#45;&#45;t1 -->
<g id="edge6" class="edge"><title>c&#45;&#45;t1</title>
<path fill="none" stroke="blue" stroke-width="2" d="M55.9409,-50.8818C51.6035,-42.207 45.3868,-29.7736 41.0516,-21.1032"/>
</g>
<!-- t2 -->
<g id="node4" class="node"><title>t2</title>
<ellipse fill="#d0d0d0" stroke="black" cx="86" cy="-11" rx="11" ry="11"/>
</g>
<!-- c&#45;&#45;t2 -->
<g id="edge8" class="edge"><title>c&#45;&#45;t2</title>
<path fill="none" stroke="blue" stroke-width="2" d="M66.0591,-50.8818C70.3965,-42.207 76.6132,-29.7736 80.9484,-21.1032"/>
</g>
<!-- b1 -->
<g id="node5" class="node"><title>b1</title>
<ellipse fill="#d0d0d0" stroke="black" cx="36" cy="-111" rx="11" ry="11"/>
</g>
<!-- c&#45;&#45;b1 -->
<g id="edge10" class="edge"><title>c&#45;&#45;b1</title>
<path fill="none" stroke="blue" stroke-width="2" d="M55.9409,-71.1182C51.6035,-79.793 45.3868,-92.2264 41.0516,-100.897"/>
</g>
<!-- b2 -->
<g id="node6" class="node"><title>b2</title>
<ellipse fill="#d0d0d0" stroke="black" cx="86" cy="-111" rx="11" ry="11"/>
</g>
<!-- c&#45;&#45;b2 -->
<g id="edge12" class="edge"><title>c&#45;&#45;b2</title>
<path fill="none" stroke="blue" stroke-width="2" d="M66.0591,-71.1182C70.3965,-79.793 76.6132,-92.2264 80.9484,-100.897"/>
</g>
<!-- d -->
<g id="node7" class="node"><title>d</title>
<ellipse fill="#d0d0d0" stroke="black" cx="111" cy="-61" rx="11" ry="11"/>
</g>
<!-- c&#45;&#45;d -->
<g id="edge4" class="edge"><title>c&#45;&#45;d</title>
<path fill="none" stroke="blue" stroke-width="2" d="M72.0966,-61C80.3825,-61 91.656,-61 99.9344,-61"/>
</g>
</g>
</svg>
