<?xml version="1.0" encoding="UTF-8" standalone="no"?>
<!DOCTYPE svg PUBLIC "-//W3C//DTD SVG 1.1//EN"
 "http://www.w3.org/Graphics/SVG/1.1/DTD/svg11.dtd">
<!-- Generated by graphviz version 2.28.0 (20110507.0327)
 -->
<!-- Title: trees Pages: 1 -->
<svg width="550pt" height="320pt"
 viewBox="0.00 0.00 550.00 320.00" xmlns="http://www.w3.org/2000/svg" xmlns:xlink="http://www.w3.org/1999/xlink">
<g id="graph1" class="graph" transform="scale(1 1) rotate(0) translate(4 316)">
<title>trees</title>
<polygon fill="white" stroke="white" points="-4,5 -4,-316 547,-316 547,5 -4,5"/>
<!-- a1 -->
<g id="node1" class="node"><title>a1</title>
<ellipse fill="#d0d0d0" stroke="black" cx="11" cy="-301" rx="11" ry="11"/>
</g>
<!-- a2 -->
<g id="node3" class="node"><title>a2</title>
<ellipse fill="#d0d0d0" stroke="black" cx="11" cy="-243" rx="11" ry="11"/>
</g>
<!-- a1&#45;&#45;a2 -->
<g id="edge2" class="edge"><title>a1&#45;&#45;a2</title>
<path fill="none" stroke="blue" stroke-width="2" d="M11,-289.988C11,-279.921 11,-264.474 11,-254.304"/>
</g>
<!-- a3 -->
<g id="node4" class="node"><title>a3</title>
<ellipse fill="#d0d0d0" stroke="black" cx="11" cy="-185" rx="11" ry="11"/>
</g>
<!-- a2&#45;&#45;a3 -->
<g id="edge3" class="edge"><title>a2&#45;&#45;a3</title>
<path fill="none" stroke="blue" stroke-width="2" d="M11,-231.988C11,-221.921 11,-206.474 11,-196.304"/>
</g>
<!-- a4 -->
<g id="node5" class="node"><title>a4</title>
<ellipse fill="#d0d0d0" stroke="black" cx="11" cy="-127" rx="11" ry="11"/>
</g>
<!-- a3&#45;&#45;a4 -->
<g id="edge4" class="edge"><title>a3&#45;&#45;a4</title>
<path fill="none" stroke="blue" stroke-width="2" d="M11,-173.988C11,-163.921 11,-148.474 11,-138.304"/>
</g>
<!-- a5 -->
<g id="node6" class="node"><title>a5</title>
<ellipse fill="#d0d0d0" stroke="black" cx="11" cy="-69" rx="11" ry="11"/>
</g>
<!-- a4&#45;&#45;a5 -->
<g id="edge5" class="edge"><title>a4&#45;&#45;a5</title>
<path fill="none" stroke="blue" stroke-width="2" d="M11,-115.988C11,-105.921 11,-90.4737 11,-80.3039"/>
</g>
<!-- a6 -->
<g id="node7" class="node"><title>a6</title>
<ellipse fill="#d0d0d0" stroke="black" cx="11" cy="-11" rx="11" ry="11"/>
</g>
<!-- a5&#45;&#45;a6 -->
<g id="edge6" class="edge"><title>a5&#45;&#45;a6</title>
<path fill="none" stroke="blue" stroke-width="2" d="M11,-57.9883C11,-47.9211 11,-32.4737 11,-22.3039"/>
</g>
<!-- b1 -->
<g id="node8" class="node"><title>b1</title>
<ellipse fill="#d0d0d0" stroke="black" cx="71" cy="-301" rx="11" ry="11"/>
</g>
<!-- b2 -->
<g id="node10" class="node"><title>b2</title>
<ellipse fill="#d0d0d0" stroke="black" cx="71" cy="-243" rx="11" ry="11"/>
</g>
<!-- b1&#45;&#45;b2 -->
<g id="edge8" class="edge"><title>b1&#45;&#45;b2</title>
<path fill="none" stroke="blue" stroke-width="2" d="M71,-289.988C71,-279.921 71,-264.474 71,-254.304"/>
</g>
<!-- b3 -->
<g id="node11" class="node"><title>b3</title>
<ellipse fill="#d0d0d0" stroke="black" cx="71" cy="-185" rx="11" ry="11"/>
</g>
<!-- b2&#45;&#45;b3 -->
<g id="edge9" class="edge"><title>b2&#45;&#45;b3</title>
<path fill="none" stroke="blue" stroke-width="2" d="M71,-231.988C71,-221.921 71,-206.474 71,-196.304"/>
</g>
<!-- b4 -->
<g id="node12" class="node"><title>b4</title>
<ellipse fill="#d0d0d0" stroke="black" cx="71" cy="-127" rx="11" ry="11"/>
</g>
<!-- b3&#45;&#45;b4 -->
<g id="edge10" class="edge"><title>b3&#45;&#45;b4</title>
<path fill="none" stroke="blue" stroke-width="2" d="M71,-173.988C71,-163.921 71,-148.474 71,-138.304"/>
</g>
<!-- b5 -->
<g id="node13" class="node"><title>b5</title>
<ellipse fill="#d0d0d0" stroke="black" cx="51" cy="-69" rx="11" ry="11"/>
</g>
<!-- b4&#45;&#45;b5 -->
<g id="edge11" class="edge"><title>b4&#45;&#45;b5</title>
<path fill="none" stroke="blue" stroke-width="2" d="M67.6073,-116.5C63.9518,-106.265 58.1643,-90.06 54.4766,-79.7345"/>
</g>
<!-- b6 -->
<g id="node15" class="node"><title>b6</title>
<ellipse fill="#d0d0d0" stroke="black" cx="91" cy="-69" rx="11" ry="11"/>
</g>
<!-- b4&#45;&#45;b6 -->
<g id="edge13" class="edge"><title>b4&#45;&#45;b6</title>
<path fill="none" stroke="blue" stroke-width="2" d="M74.3927,-116.5C78.0482,-106.265 83.8357,-90.06 87.5234,-79.7345"/>
</g>
<!-- c1 -->
<g id="node16" class="node"><title>c1</title>
<ellipse fill="#d0d0d0" stroke="black" cx="151" cy="-301" rx="11" ry="11"/>
</g>
<!-- c2 -->
<g id="node18" class="node"><title>c2</title>
<ellipse fill="#d0d0d0" stroke="black" cx="151" cy="-243" rx="11" ry="11"/>
</g>
<!-- c1&#45;&#45;c2 -->
<g id="edge15" class="edge"><title>c1&#45;&#45;c2</title>
<path fill="none" stroke="blue" stroke-width="2" d="M151,-289.988C151,-279.921 151,-264.474 151,-254.304"/>
</g>
<!-- c3 -->
<g id="node19" class="node"><title>c3</title>
<ellipse fill="#d0d0d0" stroke="black" cx="151" cy="-185" rx="11" ry="11"/>
</g>
<!-- c2&#45;&#45;c3 -->
<g id="edge16" class="edge"><title>c2&#45;&#45;c3</title>
<path fill="none" stroke="blue" stroke-width="2" d="M151,-231.988C151,-221.921 151,-206.474 151,-196.304"/>
</g>
<!-- c4 -->
<g id="node20" class="node"><title>c4</title>
<ellipse fill="#d0d0d0" stroke="black" cx="111" cy="-127" rx="11" ry="11"/>
</g>
<!-- c3&#45;&#45;c4 -->
<g id="edge17" class="edge"><title>c3&#45;&#45;c4</title>
<path fill="none" stroke="blue" stroke-width="2" d="M144.75,-175.25C137.191,-164.668 124.554,-146.976 117.075,-136.505"/>
</g>
<!-- c5 -->
<g id="node22" class="node"><title>c5</title>
<ellipse fill="#d0d0d0" stroke="black" cx="151" cy="-127" rx="11" ry="11"/>
</g>
<!-- c3&#45;&#45;c5 -->
<g id="edge19" class="edge"><title>c3&#45;&#45;c5</title>
<path fill="none" stroke="blue" stroke-width="2" d="M151,-173.988C151,-163.921 151,-148.474 151,-138.304"/>
</g>
<!-- c6 -->
<g id="node24" class="node"><title>c6</title>
<ellipse fill="#d0d0d0" stroke="black" cx="191" cy="-127" rx="11" ry="11"/>
</g>
<!-- c3&#45;&#45;c6 -->
<g id="edge21" class="edge"><title>c3&#45;&#45;c6</title>
<path fill="none" stroke="blue" stroke-width="2" d="M157.25,-175.25C164.809,-164.668 177.446,-146.976 184.925,-136.505"/>
</g>
<!-- d1 -->
<g id="node25" class="node"><title>d1</title>
<ellipse fill="#d0d0d0" stroke="black" cx="251" cy="-301" rx="11" ry="11"/>
</g>
<!-- d2 -->
<g id="node27" class="node"><title>d2</title>
<ellipse fill="#d0d0d0" stroke="black" cx="251" cy="-243" rx="11" ry="11"/>
</g>
<!-- d1&#45;&#45;d2 -->
<g id="edge23" class="edge"><title>d1&#45;&#45;d2</title>
<path fill="none" stroke="blue" stroke-width="2" d="M251,-289.988C251,-279.921 251,-264.474 251,-254.304"/>
</g>
<!-- d3 -->
<g id="node28" class="node"><title>d3</title>
<ellipse fill="#d0d0d0" stroke="black" cx="231" cy="-185" rx="11" ry="11"/>
</g>
<!-- d2&#45;&#45;d3 -->
<g id="edge24" class="edge"><title>d2&#45;&#45;d3</title>
<path fill="none" stroke="blue" stroke-width="2" d="M247.607,-232.5C243.952,-222.265 238.164,-206.06 234.477,-195.734"/>
</g>
<!-- d5 -->
<g id="node31" class="node"><title>d5</title>
<ellipse fill="#d0d0d0" stroke="black" cx="271" cy="-185" rx="11" ry="11"/>
</g>
<!-- d2&#45;&#45;d5 -->
<g id="edge27" class="edge"><title>d2&#45;&#45;d5</title>
<path fill="none" stroke="blue" stroke-width="2" d="M254.393,-232.5C258.048,-222.265 263.836,-206.06 267.523,-195.734"/>
</g>
<!-- d4 -->
<g id="node29" class="node"><title>d4</title>
<ellipse fill="#d0d0d0" stroke="black" cx="231" cy="-127" rx="11" ry="11"/>
</g>
<!-- d3&#45;&#45;d4 -->
<g id="edge25" class="edge"><title>d3&#45;&#45;d4</title>
<path fill="none" stroke="blue" stroke-width="2" d="M231,-173.988C231,-163.921 231,-148.474 231,-138.304"/>
</g>
<!-- d6 -->
<g id="node32" class="node"><title>d6</title>
<ellipse fill="#d0d0d0" stroke="black" cx="271" cy="-127" rx="11" ry="11"/>
</g>
<!-- d5&#45;&#45;d6 -->
<g id="edge28" class="edge"><title>d5&#45;&#45;d6</title>
<path fill="none" stroke="blue" stroke-width="2" d="M271,-173.988C271,-163.921 271,-148.474 271,-138.304"/>
</g>
<!-- e1 -->
<g id="node33" class="node"><title>e1</title>
<ellipse fill="#d0d0d0" stroke="black" cx="331" cy="-301" rx="11" ry="11"/>
</g>
<!-- e2 -->
<g id="node35" class="node"><title>e2</title>
<ellipse fill="#d0d0d0" stroke="black" cx="331" cy="-243" rx="11" ry="11"/>
</g>
<!-- e1&#45;&#45;e2 -->
<g id="edge30" class="edge"><title>e1&#45;&#45;e2</title>
<path fill="none" stroke="blue" stroke-width="2" d="M331,-289.988C331,-279.921 331,-264.474 331,-254.304"/>
</g>
<!-- e3 -->
<g id="node36" class="node"><title>e3</title>
<ellipse fill="#d0d0d0" stroke="black" cx="311" cy="-185" rx="11" ry="11"/>
</g>
<!-- e2&#45;&#45;e3 -->
<g id="edge31" class="edge"><title>e2&#45;&#45;e3</title>
<path fill="none" stroke="blue" stroke-width="2" d="M327.607,-232.5C323.952,-222.265 318.164,-206.06 314.477,-195.734"/>
</g>
<!-- e4 -->
<g id="node38" class="node"><title>e4</title>
<ellipse fill="#d0d0d0" stroke="black" cx="351" cy="-185" rx="11" ry="11"/>
</g>
<!-- e2&#45;&#45;e4 -->
<g id="edge33" class="edge"><title>e2&#45;&#45;e4</title>
<path fill="none" stroke="blue" stroke-width="2" d="M334.393,-232.5C338.048,-222.265 343.836,-206.06 347.523,-195.734"/>
</g>
<!-- e5 -->
<g id="node39" class="node"><title>e5</title>
<ellipse fill="#d0d0d0" stroke="black" cx="331" cy="-127" rx="11" ry="11"/>
</g>
<!-- e4&#45;&#45;e5 -->
<g id="edge34" class="edge"><title>e4&#45;&#45;e5</title>
<path fill="none" stroke="blue" stroke-width="2" d="M347.607,-174.5C343.952,-164.265 338.164,-148.06 334.477,-137.734"/>
</g>
<!-- e6 -->
<g id="node41" class="node"><title>e6</title>
<ellipse fill="#d0d0d0" stroke="black" cx="371" cy="-127" rx="11" ry="11"/>
</g>
<!-- e4&#45;&#45;e6 -->
<g id="edge36" class="edge"><title>e4&#45;&#45;e6</title>
<path fill="none" stroke="blue" stroke-width="2" d="M354.393,-174.5C358.048,-164.265 363.836,-148.06 367.523,-137.734"/>
</g>
<!-- f1 -->
<g id="node42" class="node"><title>f1</title>
<ellipse fill="#d0d0d0" stroke="black" cx="451" cy="-301" rx="11" ry="11"/>
</g>
<!-- f2 -->
<g id="node44" class="node"><title>f2</title>
<ellipse fill="#d0d0d0" stroke="black" cx="371" cy="-243" rx="11" ry="11"/>
</g>
<!-- f1&#45;&#45;f2 -->
<g id="edge38" class="edge"><title>f1&#45;&#45;f2</title>
<path fill="none" stroke="blue" stroke-width="2" d="M442.439,-294.007C427.121,-283.285 395.189,-260.933 379.742,-250.12"/>
</g>
<!-- f3 -->
<g id="node46" class="node"><title>f3</title>
<ellipse fill="#d0d0d0" stroke="black" cx="411" cy="-243" rx="11" ry="11"/>
</g>
<!-- f1&#45;&#45;f3 -->
<g id="edge40" class="edge"><title>f1&#45;&#45;f3</title>
<path fill="none" stroke="blue" stroke-width="2" d="M444.75,-291.25C437.191,-280.668 424.554,-262.976 417.075,-252.505"/>
</g>
<!-- f4 -->
<g id="node48" class="node"><title>f4</title>
<ellipse fill="#d0d0d0" stroke="black" cx="451" cy="-243" rx="11" ry="11"/>
</g>
<!-- f1&#45;&#45;f4 -->
<g id="edge42" class="edge"><title>f1&#45;&#45;f4</title>
<path fill="none" stroke="blue" stroke-width="2" d="M451,-289.988C451,-279.921 451,-264.474 451,-254.304"/>
</g>
<!-- f5 -->
<g id="node50" class="node"><title>f5</title>
<ellipse fill="#d0d0d0" stroke="black" cx="491" cy="-243" rx="11" ry="11"/>
</g>
<!-- f1&#45;&#45;f5 -->
<g id="edge44" class="edge"><title>f1&#45;&#45;f5</title>
<path fill="none" stroke="blue" stroke-width="2" d="M457.25,-291.25C464.809,-280.668 477.446,-262.976 484.925,-252.505"/>
</g>
<!-- f6 -->
<g id="node52" class="node"><title>f6</title>
<ellipse fill="#d0d0d0" stroke="black" cx="531" cy="-243" rx="11" ry="11"/>
</g>
<!-- f1&#45;&#45;f6 -->
<g id="edge46" class="edge"><title>f1&#45;&#45;f6</title>
<path fill="none" stroke="blue" stroke-width="2" d="M459.561,-294.007C474.879,-283.285 506.811,-260.933 522.258,-250.12"/>
</g>
</g>
</svg>
